<?xml version="1.0" encoding="utf-8"?>
<!-- Generator: Adobe Illustrator 27.0.0, SVG Export Plug-In . SVG Version: 6.00 Build 0)  -->
<svg version="1.1" id="Layer_1" xmlns="http://www.w3.org/2000/svg" xmlns:xlink="http://www.w3.org/1999/xlink" x="0px" y="0px"
	 viewBox="0 0 544.22 421.38" style="enable-background:new 0 0 544.22 421.38;" xml:space="preserve">
<style type="text/css">
	.st0{fill:#004C45;}
	.st1{fill:#EBA900;}
	.st2{fill:#004C46;}
</style>
<g>
	<g>
		<g>
			<path class="st0" d="M326.42,74.24c-4.42,0.21-9.04-0.73-13.32-1.98c-7.35-2.15-14.76-5.15-22.37-4.38
				c-6.94,0.7-13.47,4.7-17.23,10.57c-3.19,4.97-4.33,11.19-3.23,16.98c0.26,1.38,1.98,1.95,3.03,1.01
				c10.41-9.3,24.79-15.33,38.61-16.14c4.41-0.26,8.89-0.05,13.19-1.05c3.4-0.79,6.76-2.5,8.89-5.18c0.51-0.65-0.13-1.53-0.89-1.22
				C330.97,73.71,328.72,74.13,326.42,74.24z"/>
		</g>
		<path class="st1" d="M344.35,139.29c-12.47-28.75-41.69-43.23-68.91-29.47c-2.08,1.05-4.53,1.05-6.6-0.01
			c-27.2-13.84-56.51,0.74-68.96,29.47c-12.39,27.42-3.36,61.53,19.08,80.87c14.56,12.91,34.2,18.21,53.15,18.27
			c19.11,0.05,38.62-5.25,53.13-18.27C347.71,200.82,356.74,166.71,344.35,139.29z M268.74,130.6c2.2-1.15,4.85-1.15,7.05,0
			c9.13,4.75,16.94,12.46,21.26,21.85c10.32,21.63,2.03,47.75-24.92,47.59c-33.28,0.05-36.28-37.88-17.78-58.29
			C258.29,137.16,263.35,133.4,268.74,130.6z M296.06,222.18c-7.5,2.75-15.95,3.42-23.91,3.72c-15.86-0.18-32.63-4.64-44.09-15.79
			c-16.83-15.75-23.16-42.79-12.66-63.58c8.69-17.35,21.52-25.22,37.36-23.63c1.02,0.1,1.44,1.38,0.67,2.06
			c-11.16,9.94-18.64,24.32-19.2,39.23c-1.4,23.41,13.74,42.29,37.92,41.82c45.72-0.73,47.29-56.29,18.58-81.02
			c-0.8-0.69-0.39-2.01,0.66-2.12c15.88-1.62,28.76,6.32,37.4,23.65C343.13,174.84,326.19,212.7,296.06,222.18z"/>
	</g>
	<g>
		<path class="st2" d="M199.67,310.18c-1.23-4.75-3.29-8.76-6.18-12.07c-2.89-3.31-6.7-5.33-11.43-6.08
			c-5.04-0.68-9.68,0.05-13.91,2.22c-4.23,2.16-6.93,5.63-8.09,10.41c-0.14,1.58,0.57,2.82,2.18,3.74c1.59,0.92,3.29,1.23,5.09,0.94
			c1.8-0.31,2.89-1.49,3.27-3.55c0.61-3.72,2.16-6.3,4.71-7.72c2.53-1.44,5.09-1.13,7.69,0.94c2.6,2.04,4.31,6.37,5.18,12.99
			c-7.52-1.28-13.54-0.81-18.11,1.4c-4.57,2.22-7.74,5.39-9.52,9.47c-1.78,4.1-2.22,8.31-1.3,12.66c0.92,4.33,3.13,7.98,6.63,10.96
			c3.48,2.96,8.21,4.45,14.13,4.45c5.07-0.19,9.13-1.54,12.12-4.07c3.01-2.51,5.21-5.72,6.6-9.63c1.39-3.91,2.18-8.04,2.37-12.4
			C201.37,319.8,200.88,314.91,199.67,310.18z M170.57,339.82c0,0,0-0.02-0.02-0.02c-0.51-0.46-1-1-1.45-1.62
			c-0.04-0.06-0.06-0.12-0.1-0.18c-0.01-0.01-0.02-0.02-0.01-0.03c-6.59-8.92,2.75-18.56,12.72-18.67c2.01-0.08,5.17,0.24,7.13,0.86
			c1.4,0.44,1.38,1.59,1.71,3.02c0.8,3.55,0.59,7.38-0.78,10.75C186.48,342.16,177.45,346.58,170.57,339.82z"/>
		<path class="st2" d="M392.43,330.61c1.23,4.75,3.29,8.76,6.18,12.07c2.89,3.31,6.7,5.33,11.43,6.08
			c5.04,0.68,9.68-0.05,13.91-2.22c4.23-2.16,6.93-5.63,8.09-10.41c0.14-1.58-0.57-2.82-2.18-3.74c-1.59-0.92-3.29-1.23-5.09-0.94
			c-1.8,0.31-2.89,1.49-3.27,3.55c-0.61,3.72-2.16,6.3-4.71,7.72c-2.53,1.44-5.09,1.13-7.69-0.94c-2.6-2.04-4.31-6.37-5.18-12.99
			c7.52,1.28,13.54,0.81,18.11-1.4c4.57-2.22,7.74-5.39,9.52-9.47c1.78-4.1,2.22-8.31,1.3-12.66c-0.92-4.33-3.13-7.98-6.63-10.96
			c-3.48-2.96-8.21-4.45-14.13-4.45c-5.07,0.19-9.13,1.54-12.12,4.07c-3.01,2.51-5.21,5.72-6.6,9.63c-1.39,3.91-2.18,8.04-2.37,12.4
			C390.73,321,391.22,325.89,392.43,330.61z M421.53,300.98c0,0,0,0.02,0.02,0.02c0.51,0.46,1,1,1.45,1.62
			c0.04,0.06,0.06,0.12,0.1,0.18c0.01,0.01,0.02,0.02,0.01,0.03c6.59,8.92-2.75,18.56-12.72,18.67c-2.01,0.08-5.17-0.24-7.13-0.86
			c-1.4-0.44-1.38-1.59-1.71-3.02c-0.8-3.55-0.59-7.38,0.78-10.75C405.62,298.64,414.65,294.21,421.53,300.98z"/>
		<path class="st2" d="M95.81,331.82c0.22-1.73,1.16-2.77,2.82-3.13c1.65-0.36,3.25-0.13,4.79,0.68c1.54,0.81,2.27,2.1,2.2,3.86
			c-0.68,4.62-2.45,8.3-5.33,11.05c-2.87,2.74-6.23,4.3-10.06,4.68c-3.83,0.38-7.51-0.68-11.02-3.16c-3.51-2.48-6.25-6.65-8.2-12.51
			c-1.84-6.8-2.88-15.24-3.13-25.33c-0.25-10.09-0.14-18.72,0.31-25.9c0.3-2.48,1.65-3.92,4.06-4.31c2.4-0.4,4.74-0.04,7.02,1.07
			c2.27,1.11,3.41,2.7,3.41,4.76c-0.11,1.01-0.26,2.24-0.45,3.66c-0.34,2.55-0.65,5.44-0.93,8.65c-0.28,3.21-0.35,6.32-0.2,9.33
			l14.82-0.34c1.58,0.11,2.63,0.87,3.16,2.28c0.53,1.41,0.53,2.82,0.03,4.22c-0.51,1.41-1.55,2.11-3.13,2.11
			c-1.13-0.07-2.22-0.17-3.27-0.28c-2.25-0.3-4.22-0.35-5.89-0.14c-1.67,0.21-2.96,1.09-3.86,2.65s-1.35,4.26-1.35,8.09
			c0.26,7.4,1.47,12.42,3.64,15.05c2.16,2.63,4.35,3.26,6.57,1.89C94.03,339.38,95.36,336.41,95.81,331.82z"/>
		<path class="st2" d="M149.13,304.66c-2.74-4.62-6.39-7.43-10.96-8.43c-4.55-0.99-9.63,0.02-15.19,3.01c0-2.32,0.23-5.4,0.68-9.25
			c0.45-3.83,1.13-7.65,2.03-11.48c0.38-2.37-0.48-4.26-2.58-5.65c-2.11-1.39-4.38-1.9-6.82-1.56c-2.44,0.36-3.97,1.96-4.57,4.76
			c-1.35,9.44-2.01,20.04-1.97,31.8c0.05,11.76,0.59,22.76,1.65,32.97c0.33,1.99,1.52,3.22,3.55,3.69c2.03,0.48,3.98,0.33,5.85-0.42
			c1.89-0.74,2.79-1.97,2.72-3.67c-1.25-9.13-1.4-16.42-0.45-21.86c0.94-5.46,2.46-9.33,4.55-11.64c2.11-2.32,4.24-3.31,6.42-2.96
			c2.6,0.48,4.45,2.25,5.56,5.32c1.11,3.07,1.71,6.74,1.84,11.03c0.1,4.28-0.03,8.49-0.4,12.61c-0.38,4.14-0.76,7.5-1.13,10.1
			c-0.09,0.54-0.14,1-0.17,1.42c-0.07,1.8,0.87,3.08,2.82,3.84c1.94,0.78,3.95,0.95,5.99,0.52c2.06-0.43,3.22-1.56,3.53-3.36
			c0.07-0.68,0.14-1.4,0.23-2.2c0.59-5.4,0.95-12.04,1.07-19.9C153.28,315.52,151.88,309.28,149.13,304.66z"/>
		<path class="st2" d="M239.01,303.81c2.27-1.44,4.78-2.18,7.53-2.25c1.49-0.09,2.48-0.83,2.93-2.27c0.45-1.42,0.42-3-0.12-4.73
			c-0.52-1.73-1.49-3.05-2.93-3.97c-1.42-0.94-3.26-0.9-5.47,0.07c-4.47,2.3-8.73,6.01-12.78,11.12
			c-4.07,5.11-6.84,10.29-8.35,15.55c-0.07-7,0.33-14.24,1.21-21.73c0.88-7.5,1.75-12.94,2.62-16.31c0.42-2.29-0.43-4.1-2.53-5.4
			c-2.11-1.32-4.38-1.82-6.82-1.47c-2.44,0.33-3.97,1.85-4.57,4.57c-1.35,9.09-1.92,19.78-1.71,32.07
			c0.21,12.28,0.81,23.34,1.84,33.2c0.33,1.9,1.4,3.12,3.19,3.64c1.78,0.5,3.53,0.43,5.26-0.24c1.73-0.64,2.67-1.78,2.82-3.39
			c0.03-2.6,0.31-5.26,0.85-8.02c0.52-2.74,1.33-5.11,2.42-7.12c1.07-2.01,2.49-3.2,4.23-3.58c1.39-0.22,2.86,0.52,4.42,2.23
			c1.56,1.7,2.79,4.24,3.69,7.64c0.9,3.38,1.11,7.43,0.62,12.17c-0.07,1.68,0.83,2.82,2.7,3.39c1.89,0.59,3.81,0.61,5.78,0.03
			c1.97-0.55,3.05-1.71,3.24-3.43c0-6.39-0.92-11.85-2.74-16.35c-1.82-4.52-4.21-8.05-7.15-10.6c-2.96-2.56-6.06-4.09-9.33-4.57
			c0.68-1.54,1.8-3.27,3.39-5.21C234.82,306.91,236.74,305.23,239.01,303.81z"/>
		<path class="st2" d="M285.96,303.81c2.29-1.44,4.78-2.18,7.53-2.25c1.51-0.09,2.48-0.83,2.93-2.27c0.45-1.42,0.42-3-0.1-4.73
			c-0.54-1.73-1.51-3.05-2.94-3.97c-1.42-0.94-3.24-0.9-5.46,0.07c-4.49,2.3-8.75,6.01-12.8,11.12c-4.05,5.11-6.84,10.29-8.35,15.55
			c-0.07-7,0.33-14.24,1.21-21.73c0.88-7.5,1.75-12.94,2.61-16.31c0.42-2.29-0.43-4.1-2.53-5.4c-2.11-1.32-4.38-1.82-6.82-1.47
			c-2.44,0.33-3.97,1.85-4.55,4.57c-1.37,9.09-1.94,19.78-1.73,32.07c0.21,12.28,0.81,23.34,1.84,33.2c0.35,1.9,1.4,3.12,3.19,3.64
			c1.78,0.5,3.53,0.43,5.26-0.24c1.73-0.64,2.67-1.78,2.82-3.39c0.03-2.6,0.31-5.26,0.85-8.02c0.52-2.74,1.33-5.11,2.42-7.12
			c1.09-2.01,2.49-3.2,4.23-3.58c1.39-0.22,2.86,0.52,4.42,2.23c1.56,1.7,2.79,4.24,3.71,7.64c0.9,3.38,1.09,7.43,0.61,12.17
			c-0.07,1.68,0.83,2.82,2.72,3.39c1.87,0.59,3.79,0.61,5.77,0.03c1.97-0.55,3.05-1.71,3.24-3.43c0-6.39-0.9-11.85-2.74-16.35
			c-1.82-4.52-4.21-8.05-7.15-10.6c-2.94-2.56-6.06-4.09-9.33-4.57c0.69-1.54,1.82-3.27,3.39-5.21
			C281.76,306.91,283.69,305.23,285.96,303.81z"/>
		<path class="st2" d="M342.27,310.18c-1.23-4.75-3.29-8.76-6.18-12.07c-2.89-3.31-6.7-5.33-11.43-6.08
			c-5.04-0.68-9.68,0.05-13.91,2.22c-4.23,2.16-6.93,5.63-8.09,10.41c-0.14,1.58,0.57,2.82,2.18,3.74c1.59,0.92,3.29,1.23,5.09,0.94
			c1.8-0.31,2.89-1.49,3.27-3.55c0.61-3.72,2.16-6.3,4.71-7.72c2.53-1.44,5.09-1.13,7.69,0.94c2.6,2.04,4.31,6.37,5.18,12.99
			c-7.52-1.28-13.54-0.81-18.11,1.4c-4.57,2.22-7.74,5.39-9.52,9.47c-1.78,4.1-2.22,8.31-1.3,12.66c0.92,4.33,3.13,7.98,6.63,10.96
			c3.48,2.96,8.21,4.45,14.13,4.45c5.07-0.19,9.13-1.54,12.12-4.07c3.01-2.51,5.21-5.72,6.6-9.63c1.39-3.91,2.18-8.04,2.37-12.4
			C343.97,319.8,343.49,314.91,342.27,310.18z M313.18,339.82c0,0,0-0.02-0.02-0.02c-0.51-0.46-1-1-1.45-1.62
			c-0.04-0.06-0.06-0.12-0.1-0.18c-0.01-0.01-0.02-0.02-0.01-0.03c-6.59-8.92,2.75-18.56,12.72-18.67c2.01-0.08,5.17,0.24,7.13,0.86
			c1.4,0.44,1.38,1.59,1.71,3.02c0.8,3.55,0.59,7.38-0.78,10.75C329.08,342.16,320.05,346.58,313.18,339.82z"/>
		<path class="st2" d="M366.19,279.06c0.35-2.37-0.55-4.21-2.7-5.56c-2.15-1.33-4.42-1.78-6.84-1.37c-2.42,0.42-3.9,2.03-4.43,4.85
			c-1.16,9.8-1.77,21.75-1.84,35.87c-0.05,14.11,0.52,26.43,1.73,36.96c0.42,1.99,1.63,3.19,3.65,3.6c2.04,0.42,3.98,0.23,5.84-0.57
			c1.87-0.78,2.74-2.03,2.63-3.71c-1.28-9.21-1.73-20.89-1.37-35C363.25,300,364.35,288.31,366.19,279.06z"/>
		<path class="st2" d="M381.95,303.31c-2.08-0.83-4.21-0.88-6.37-0.16c-2.16,0.74-3.33,2.34-3.52,4.83
			c-0.09,4.76-0.03,10.29,0.14,16.54c0.17,6.25,0.48,11.64,0.94,16.14c0.33,1.96,1.4,3.22,3.19,3.76c1.78,0.54,3.55,0.5,5.3-0.12
			c1.73-0.61,2.7-1.71,2.89-3.29c0.16-4.85,0.23-9.78,0.23-14.82c0-6.01,0.14-12.14,0.4-18.37
			C385.1,305.63,384.03,304.12,381.95,303.31z M385.46,281.99c-0.23-2.1-1.47-3.48-3.78-4.14c-2.29-0.66-4.57-0.62-6.88,0.12
			c-2.29,0.73-3.48,2.15-3.6,4.24c0,0.8,0.07,1.87,0.19,3.24c0.14,1.39,0.33,2.72,0.57,4.04c0.24,1.32,0.54,2.29,0.87,2.87
			c1.47,1.8,3.52,2.68,6.13,2.62c2.6-0.05,4.47-1.07,5.59-3.07c0.23-0.52,0.42-1.44,0.54-2.75c0.14-1.32,0.24-2.67,0.31-4.04
			C385.5,283.76,385.52,282.7,385.46,281.99z"/>
		<path class="st2" d="M476,302.96c-2.15-5.26-5.47-8.69-9.99-10.3c-4.5-1.63-9.09-1.71-13.77-0.26c-4.68,1.44-8.35,4.16-11,8.1
			c-2.65,3.97-3.19,8.92-1.61,14.86c1.21,3.5,3.22,6.34,6.04,8.54c2.81,2.2,5.7,4.07,8.68,5.61c2.1,1.13,3.91,2.23,5.46,3.33
			c1.54,1.09,2.56,2.27,3.05,3.55c0.57,1.92,0.19,3.43-1.13,4.54c-1.32,1.11-2.91,1.49-4.76,1.13c-1.85-0.35-3.38-1.75-4.54-4.19
			c-0.97-1.96-2.34-2.86-4.09-2.68c-1.75,0.17-3.08,1.04-4.04,2.63c-0.94,1.58-0.68,3.46,0.8,5.68c2.67,3.31,6.22,5.21,10.65,5.73
			c4.43,0.5,8.54-0.28,12.31-2.32c3.78-2.04,6.01-5.25,6.68-9.61c0.38-4.36-0.66-7.74-3.1-10.17c-2.44-2.42-5.32-4.5-8.62-6.23
			c-2.79-1.51-5.25-3.17-7.38-5.02c-2.15-1.84-3.41-4.24-3.78-7.2c-0.16-3.31,0.81-5.92,2.89-7.84c2.1-1.91,4.35-2.44,6.77-1.59
			c2.42,0.83,4.09,3.71,4.99,8.59c0.36,1.47,1.51,2.29,3.41,2.48c1.89,0.19,3.58-0.31,5.09-1.49
			C476.54,307.62,476.85,305.66,476,302.96z"/>
	</g>
</g>
</svg>
